<svg id="Layer_1" data-name="Layer 1" xmlns="http://www.w3.org/2000/svg" viewBox="0 0 791.39 247.05"><defs><style>.cls-1{fill:#faf9fb;}.cls-2{fill:#f4f2f3;}</style></defs><title>white_landscape</title><path class="cls-1" d="M-668.6,286.85q-81.46,0-162.92.1c-4.19,0-5.19-1.06-5.17-5.21q.27-48.23,0-96.45c0-3.71.65-5,4.79-5q163.17.19,326.34,0c3.67,0,4.75.8,4.73,4.64q-.26,48.47,0,97c0,4.39-1.45,5.07-5.38,5.06Q-587.39,286.75-668.6,286.85Z" transform="translate(836.69 -39.91)"/><path class="cls-2" d="M-562.33,132.8c0,7.8-.25,14.25.09,20.66.2,3.8-1.06,5.13-4.77,5.68a166.06,166.06,0,0,1-17.39,1.51c-3,.12-3.64-1.18-3.94-3.64-.94-7.59-2-15.17-3-22.77-.29-2.31-.63-2.81-3.63-3.25-7.75-1.12-7.9,3.31-8.39,8.57-.56,6-1.68,11.87-2.23,17.83-.24,2.65-1.25,3.27-3.73,3.23a119.22,119.22,0,0,1-17.89-1.53c-3.17-.55-4.43-1.66-4.26-5.09.31-6.58.09-13.18.09-20.86-5.15,4.7-8.68,9.19-10.88,14.59s-.92,8.44,4.41,10.85c9.68,4.36,20.1,4.18,30.39,4.68,1.78.08,3.57,0,6.16,0-3,3.74-5,7.15-4.37,11.39.3,2.13-1.24,1.94-2.56,1.94-12.49,0-25,.82-37.45-.29-8-.71-13.2-7.11-16.23-14.58-3.84-9.47-1.44-18.43,3.1-26.83,5.73-10.6,14.14-18.92,24.13-25.52a28.6,28.6,0,0,1,16.95-4.87c12.48.34,25,.61,37.46-.05,10.54-.56,19.28,2.73,27.06,9.34,11.51,9.79,21,20.82,23,36.67,1.51,11.5-9.91,27.53-23,26.43-15-1.27-30.29-.41-45.44-.21-3.68.05-4.62-1.25-4.27-4.6.56-5.35,4.26-8.61,10.82-8.76,8.83-.2,17.65-.3,26.38-1.82A35.75,35.75,0,0,0-554.77,158c3.82-2,5-4.93,3.55-9.11C-553.29,142.89-557,138.19-562.33,132.8ZM-597,114.88c-4.92,0-6.92,2.18-6.72,8.27.14,4.39,4.08,4.2,6.94,4.25s6.53-.17,6.84-4C-589.49,117.92-592.35,114.88-597,114.88Z" transform="translate(836.69 -39.91)"/><path class="cls-2" d="M-765.38,119c-9,6.18-2.49,10.79,1,15.51,5.23,7.11,10.73,14,16.16,21,3.6,4.63,4.36,4.61,8.07-.23,6.39-8.31,12.62-16.76,19.19-24.93,2.51-3.12,3.38-5.64.09-8.59a14.17,14.17,0,0,1-1.81-2.72c2.62-1,6,.12,7.16-1.82.91-1.49-.28-4.25-.58-6.78,4.72.63,8.07,3.46,11.14,6.27,9.71,8.89,18.07,18.78,19.78,32.52,1.79,14.4-9.86,27.35-24.37,27.35-10,0-20-.13-30,.07-4,.09-4.66-1.91-4-5,1.07-4.64,4.13-7,8.94-7.12,7.68-.12,15.32-.7,22.66-3.1,12.06-4,13.84-13.41,3.79-22.86-1,5.51-2,10.64-2.73,15.83-.46,3.46-2,5.11-5.5,5.75a155.92,155.92,0,0,1-19.36,2c-3.63.22-6,3.7-8.7,3.68-2.47,0-4.8-3.44-8.3-3.65-6.31-.38-12.58-1.3-18.87-1.92-3.82-.38-5.77-2.11-6.15-6.22-.46-5.06-1.68-10.06-2.68-15.7a20,20,0,0,0-6.18,10.67c-1.2,5.46.4,8.35,5.65,10.73,7.57,3.43,15.65,4.34,23.83,4.68,2.65.12,5.35-.15,7.84,1.13,2.81,1.46,5,8.06,3.29,10.32-.7.94-1.82.65-2.78.65-11.33,0-22.68.38-34-.1-11.91-.49-22.47-14.36-20.53-27,2.64-17.19,13.24-29,27.33-38.09,1.06-.68,4.07-2.23,3.09.78C-775.18,119.39-769.81,118-765.38,119Z" transform="translate(836.69 -39.91)"/><path class="cls-2" d="M-597,97.41a29,29,0,0,1-28.63-29.12,28.87,28.87,0,0,1,28.82-28.38,28.83,28.83,0,0,1,28.63,28.57A29,29,0,0,1-597,97.41Z" transform="translate(836.69 -39.91)"/><path class="cls-2" d="M-744.07,45.48a27.46,27.46,0,0,1,27.28,27.44,27.89,27.89,0,0,1-27.46,27.42,27.62,27.62,0,0,1-27.44-27.86A27.23,27.23,0,0,1-744.07,45.48Z" transform="translate(836.69 -39.91)"/><path class="cls-2" d="M-744.27,155.53c-4.93-13.06-9.64-25.27-14.06-37.58-.81-2.25-.31-4.94-.65-7.4s1-2.78,2.86-2.89a212.76,212.76,0,0,1,23.42,0c2.2.11,3.41.82,3.12,3.3-.33,2.77,0,5.57-1,8.33C-735.13,131-739.5,142.82-744.27,155.53Z" transform="translate(836.69 -39.91)"/><path class="cls-2" d="M-457.15,127.85c0,10.54-.13,19.62.07,28.68.07,3.19-.73,4.25-4.1,4.25-11.52,0-11.52.13-11.52-11.29,0-14.5.11-29-.09-43.49,0-3.53,1.07-4.12,4.43-4.48,6.94-.75,11.26,1.61,14.89,7.68A167.77,167.77,0,0,0-436,132.56c0-8.71.25-17.44-.1-26.15-.17-4.09,1.2-4.89,5-4.81,10.55.21,10.55.05,10.56,10.67,0,14.66-.1,29.33.08,44,0,3.38-.82,4.27-4.35,4.6-6.7.62-11-1.39-14.52-7.39C-444.41,145-450.59,137.18-457.15,127.85Z" transform="translate(836.69 -39.91)"/><path class="cls-2" d="M-110.77,135.19c0,7.16-.11,14.33,0,21.48.06,2.83-.4,4.08-3.73,4.11-11.57.11-11.76.26-11.51-11.58.09-4.16-1.05-5.57-5.23-5.2a85.22,85.22,0,0,1-12.48,0c-3-.16-3.8,1-3.61,3.73s.05,5.66.05,8.49c0,.84.34,1.95-.07,2.46-3.58,4.49-8.5.89-12.71,1.94-2.12.53-2.86-.71-2.85-2.84.06-15,0-30,.07-45,0-3.65,7.6-11.09,11.25-11.12q14.73-.12,29.48,0c4,0,11.23,7.39,11.27,11.49C-110.72,120.53-110.77,127.86-110.77,135.19Zm-25.83-4.13c10.55,0,10.55,0,10.55-10.54a18.8,18.8,0,0,1,0-2.49c.35-2.52-.49-3.56-3.22-3.4a70.81,70.81,0,0,1-11.92,0c-4.94-.56-6.42,1-6.19,6.06C-146.91,131-147.24,131.06-136.6,131.06Z" transform="translate(836.69 -39.91)"/><path class="cls-2" d="M-72,101.68c3.17,0,6.38.34,9.49-.07,5.8-.75,9.87,1.49,13.91,5.59,3.09,3.13,3,6.37,2.94,10,0,1-.28,2.29-1.48,2.19-4.1-.36-8.78,1.94-12.06-2.38-1.46-1.92-3.31-2.42-5.65-2.35a144.12,144.12,0,0,1-15,0c-4.7-.35-3.43,2.78-3.48,5.16-.06,2.54-.87,5.3,3.71,5,7.31-.42,14.66-.15,22-.1,4.63,0,11.85,7.25,12,11.92.06,2.33-.39,4.75.08,7,1.57,7.45-3,11.65-7.76,16-1.46,1.33-3,1.1-4.65,1.1-9.5,0-19,.05-28.49,0-6.46,0-13.74-9.23-12.44-15.56.18-.86.3-1.91,1.24-1.85,4,.24,8.53-1.93,11.86,1.64,2.33,2.51,4.91,2.94,8,2.83,4.49-.17,9-.26,13.49,0,4.9.3,3.07-3.19,3.24-5.41s1-5-3.37-4.74c-7,.37-14,.1-21,.1-6.62,0-13.47-6.88-13.49-13.51,0-1.84.33-3.74,0-5.49-1.63-7.44,3-11.66,7.77-15.92,1.32-1.17,2.71-1.08,4.19-1.08Z" transform="translate(836.69 -39.91)"/><path class="cls-2" d="M-356.8,131.24c0,4.34-.36,8.71.09,13,.58,5.46-1.16,9.41-5.26,13.05-2.69,2.38-5.13,3.59-8.74,3.49-8.66-.25-17.33-.05-26-.1-4.5,0-12.09-7.4-12.12-11.86q-.1-17.75,0-35.5c0-4.32,7.44-11.58,11.79-11.61q14.25-.08,28.5,0c4.42,0,11.67,7.14,11.72,11.55C-356.74,119.25-356.8,125.24-356.8,131.24Zm-36.46-1.36c0,5.4.11,9.9-.05,14.39-.08,2.48.49,3.6,3.27,3.47,4.82-.21,9.67-.24,14.49,0,3,.16,3.58-1,3.53-3.73-.15-8-.32-16,0-24,.2-4.29-.78-5.92-5.34-5.45-5.09.53-12-1.66-14.93.94C-395.53,118.5-392.84,125.53-393.26,129.88Z" transform="translate(836.69 -39.91)"/><path class="cls-2" d="M-258,131.25c0-4.32.41-8.7-.09-13-.7-5.9,1.44-10,5.84-13.76,2.34-2,4.43-3,7.48-2.91,6.65.21,13.36.59,20-.09,6.36-.66,10.75,1.66,14.58,6.29,1.94,2.35,3.5,9.37,2.1,11-.91,1.08-10.21,1.15-11.47-.31-6.19-7.13-14.33-2.63-21.51-3.75-1.72-.27-1.41,1.47-1.41,2.55,0,9.15.05,18.3-.06,27.45,0,2.59,1.18,3,3.35,2.93,4.32-.12,8.65-.07,13,0,1.55,0,3.06,0,4-1.41,2.21-3.16,5.37-3.63,8.81-3.2,1.85.22,4.76-1.11,5.31,1.15.68,2.86,1.42,6.2-1,9-4.2,4.95-8.65,8.6-16,7.61-6-.81-12.29-.16-18.45-.16A14.31,14.31,0,0,1-258,146.23Q-258,138.75-258,131.25Z" transform="translate(836.69 -39.91)"/><path class="cls-2" d="M-323.82,101.68c7.16,0,14.33.14,21.48-.06,2.9-.08,3.55.91,3.57,3.67.07,9.4.18,9.4-9.34,9.4-8.05,0-8.05,0-8.05,8,0,11.16-.1,22.32.07,33.47,0,3.24-.45,4.66-4.22,4.63-11.4-.1-11.4.08-11.4-11.42,0-10.15-.18-20.32.09-30.47.1-3.66-1.1-4.67-4.48-4.26a49.83,49.83,0,0,1-6,0c-7,0-6.62,0-7.07-7.17-.3-4.77.93-6.34,5.87-6C-336.84,102.06-330.31,101.68-323.82,101.68Z" transform="translate(836.69 -39.91)"/><path class="cls-2" d="M-185.15,101.68h4.5c7.9,0,9.53,2.06,7.73,9.82-.14.59-.51,1.63-.79,1.63-5.66.19-3.59,4.49-3.66,7.25-.21,8.16-.09,16.33-.06,24.49,0,1.89-.61,4,2.72,4,3,0,1.73,2.72,1.78,4.27.21,7.49.15,7.5-7.11,7.5-4.83,0-9.67-.11-14.49,0-2.37.07-3.37-.69-3.2-3.11.15-2,0-4,0-6,0-1-.13-2.54,1-2.53,5.45.05,3.67-3.93,3.71-6.61.15-8.5,0-17,.07-25.49,0-1.88.27-3.61-2.63-3.58s-2-2.5-2.08-4.13c-.26-7.6-.22-7.61,7.51-7.61Z" transform="translate(836.69 -39.91)"/><path class="cls-2" d="M-280.65,160.69h-4c-9.11,0-9.39-.32-8.28-9.36.12-1-.09-2.43,1.2-2.33,4.84.35,3.6-3.08,3.62-5.63.05-8.81,0-17.62,0-26.43,0-1.89.26-3.75-2.63-3.47-2.21.2-2.12-1.44-2.24-3-.65-8.79-.67-8.79,8.33-8.79,4.32,0,8.65.15,13-.05,2.72-.12,4,.56,3.66,3.52a50,50,0,0,0-.05,5.48c0,1,.13,2.63-.84,2.61-5.91-.15-3.8,4.22-3.87,7-.2,8.3-.1,16.62,0,24.93,0,1.21-.59,2.7,1,3.51,1.19.59,3.44-.79,3.6,1.56a59.61,59.61,0,0,1-.09,9.45c-.14,1.5-1.86,1-2.93,1C-274.33,160.72-277.49,160.69-280.65,160.69Z" transform="translate(836.69 -39.91)"/><path class="cls-2" d="M-404.95,202.61c0-3.08.1-6.18,0-9.27-.09-2.18.76-2.91,2.88-2.9s2.91.68,2.89,2.9q-.16,14.19,0,28.39c0,3.49-2.75,3.84-4.13,2.6-1.7-1.53-2.48-1.14-4.06-.41-5.73,2.62-10.86,1.38-14.07-3.22-3.4-4.88-3-12.9.89-17.18,3.58-4,8.78-4.28,14.34-.92C-406,202.73-405.68,202.61-404.95,202.61Zm.24,10.21c.06-4.79-2.7-7.95-6.92-7.93-4,0-6.86,3.06-7,7.48-.17,4.63,2.64,8,6.79,8.1C-407.55,220.6-404.77,217.62-404.71,212.82Z" transform="translate(836.69 -39.91)"/><path class="cls-2" d="M-140.95,203.61c0-3.9.09-7.22,0-10.53-.07-1.94.6-2.68,2.54-2.63,1.71.05,2.82.3,2.81,2.44q-.11,14.69,0,29.39c0,2.54-2.32,3.19-3.17,2.26-2.64-2.92-4.61-.37-6.77.26a10.51,10.51,0,0,1-12.7-5.09c-3-5.4-2-13.28,2.26-17C-152,199.17-147,199.32-140.95,203.61Zm0,9c0-4.68-2.9-7.83-7.11-7.7-4,.12-6.81,3.19-6.9,7.6-.1,4.6,2.79,7.87,7,7.93S-140.95,217.47-140.94,212.65Z" transform="translate(836.69 -39.91)"/><path class="cls-2" d="M-383.35,212.58c0-7.16,5.13-12.43,12.06-12.5a11.43,11.43,0,0,1,11.63,11.19c.07,2.41-.52,3.7-3.3,3.59-4.31-.19-8.63,0-12.94-.06-2.42,0-2.41,1-1.42,2.73,1.83,3.15,6.69,4.33,11.14,2.49,1.54-.63,3-1.91,4.15.28,1.23,2.39-1.17,2.71-2.37,3.39C-373.3,228.64-383.42,222.68-383.35,212.58Zm12.08-1.52a8.09,8.09,0,0,0,2,0c1.57-.42,4.21,1.22,4.55-1.26.3-2.19-1.75-3.82-3.87-4.63a6.81,6.81,0,0,0-5.73.25c-1.89,1-3.75,2.46-3.45,4.39.39,2.51,3,.81,4.55,1.25A7.7,7.7,0,0,0-371.27,211.06Z" transform="translate(836.69 -39.91)"/><path class="cls-2" d="M-214.68,212.69a12.79,12.79,0,0,1-12.64,12.78,13,13,0,0,1-12.61-12.92,12.92,12.92,0,0,1,12.52-12.47A12.64,12.64,0,0,1-214.68,212.69Zm-5.16-.12a7.35,7.35,0,0,0-7.56-7.47,7.52,7.52,0,0,0-7.26,7.81c.09,4.13,3.66,7.68,7.6,7.55A7.61,7.61,0,0,0-219.84,212.57Z" transform="translate(836.69 -39.91)"/><path class="cls-2" d="M-107.35,200.08a12.89,12.89,0,0,1,12.94,12.54,13,13,0,0,1-12.69,12.85,13,13,0,0,1-12.64-12.36A12.78,12.78,0,0,1-107.35,200.08Zm.51,20.39a7.69,7.69,0,0,0,7.11-8,7.35,7.35,0,0,0-7.67-7.35,7.56,7.56,0,0,0-7.2,7.91A7.8,7.8,0,0,0-106.84,220.47Z" transform="translate(836.69 -39.91)"/><path class="cls-2" d="M-198.7,212.64c0-3,0-6,0-9,0-1.11-.29-2.59,1.23-2.87,1.21-.23,3.18-.73,3.63.64.94,2.88,1.75,1.82,3.48.66,6.86-4.63,13.84-1,14.28,7.34.21,4,0,8,.13,11.95.05,2.05-.12,3.43-2.84,3.38-2.55-.05-2.52-1.44-2.51-3.19,0-3.49,0-7,0-10.46,0-3.75-1.64-6.21-5.59-6-3.71.18-6.28,2.09-6.37,6.21-.07,3.48-.09,7,0,10.45.06,2.07-.6,3-2.82,3-2.42,0-2.69-1.26-2.65-3.14C-198.66,218.61-198.7,215.62-198.7,212.64Z" transform="translate(836.69 -39.91)"/><path class="cls-2" d="M-257.9,193.1c-.6,0-1.76,0-2.92,0-3.35.12-6,1.31-6.06,5.11,0,4.61,3.64,1.82,5.57,2.39,1.38.42,3,.11,4.47.08s2.63.32,2.55,2.18-1.13,2.23-2.65,2.22c-.34,0-.67,0-1,0-9,.46-9,.46-9,9.74,0,1.83.1,3.66,0,5.48s1.05,4.55-2.77,4.43-2.36-2.91-2.47-4.68a93.37,93.37,0,0,1,0-11c.18-3-.75-4.38-3.89-4-1.84.21-3.3-.17-3.15-2.61s2-1.84,3.31-1.72c2.79.27,3.66-.81,3.94-3.57.72-7.12,9.68-11.47,15.9-8a2.52,2.52,0,0,1,1.37,2.89C-255,193.73-256.1,193.7-257.9,193.1Z" transform="translate(836.69 -39.91)"/><path class="cls-2" d="M-330,205.74c0,2.65.21,5.33,0,8-.45,4.57,0,8,6,6.83,1.21-.24,2.29.12,2.3,1.79s-.67,2.39-2.36,2.38c-6,0-12-.06-17.94,0-1.73,0-2.32-.7-2.3-2.36s.94-1.72,2.23-1.89c7-.9,7-.94,7-8.19,0-3.48-.21-7,.05-10.46.37-4.82,0-8.6-6.46-7.16-1.52.33-2.48-.37-2.48-2.19,0-2,1.36-1.91,2.69-2,.17,0,.33,0,.5,0,10.82-.64,10.82-.64,10.82,10.26Z" transform="translate(836.69 -39.91)"/></svg>